<svg xmlns="http://www.w3.org/2000/svg" width="100" height="100" viewBox="0 0 100 100"><path fill="#EFC75E" d="M50 0c27.614 0 50 22.386 50 50s-22.386 50-50 50S0 77.614 0 50 22.386 0 50 0z"/><path fill="#A86A3F" d="M26 27h46a5 5 0 0 1 5 5v6a5 5 0 0 1-5 5H26a5 5 0 0 1-5-5v-6a5 5 0 0 1 5-5z"/><path fill="#975F39" d="M72 27H26a5 5 0 0 0-5 5v2a5 5 0 0 1 5-5h46a5 5 0 0 1 5 5v-2a5 5 0 0 0-5-5z"/><path fill="#3DB39E" d="M35.963 31.367l31.302-8.3a2.013 2.013 0 0 1 2.462 1.406l5.203 19.212a1.988 1.988 0 0 1-1.422 2.436L32.735 56.933a2.013 2.013 0 0 1-2.462-1.406l-3.822-14.113 9.512-10.047z"/><path fill="#78CABB" d="M69.457 43.068l-6.762 1.812a1 1 0 0 1-.518-1.932l5.796-1.553-3.105-11.591-5.796 1.553a1 1 0 0 1-.518-1.932l6.762-1.812a1 1 0 0 1 1.225.707l3.623 13.522a1 1 0 0 1-.707 1.226zm-28.012 7.506l-6.762 1.812a1.001 1.001 0 0 1-1.225-.707l-3.623-13.523a1 1 0 0 1 .707-1.225l6.762-1.812a1 1 0 0 1 .518 1.933l-5.796 1.553 3.105 11.591 5.796-1.553a1 1 0 0 1 .518 1.931z"/><path fill="#5ABEAC" d="M21.292 38.125c8.909-5.112 33.002-18.949 33.002-18.949a2.013 2.013 0 0 1 2.742.721l9.998 17.211c.552.951.22 2.169-.743 2.721L29.706 60.824a2.012 2.012 0 0 1-2.742-.721s-2.864-5.895-5.672-10.729V38.125z"/><path fill="#8CD2C5" d="M35.474 50.696l-5.196 3-6-10.393 5.196-3a1 1 0 0 0-1-1.732l-6.062 3.5a.998.998 0 0 0-.365 1.365l7 12.125a.996.996 0 0 0 1.365.365l6.062-3.5a1 1 0 0 0-1-1.73zm26.48-14.134l-7-12.125a1 1 0 0 0-1.365-.366l-6.062 3.5a1 1 0 0 0 1 1.732l5.196-3 6 10.393-5.196 3a1 1 0 0 0 1 1.732l6.062-3.5a1 1 0 0 0 .365-1.366zM38 33.072A8 8 0 0 0 35.072 44 8 8 0 0 0 46 46.928a8 8 0 0 0-8-13.856z"/><path fill="#C47E4D" d="M74 36H25a4 4 0 0 1-4-4v36a5 5 0 0 0 5 5h48a5 5 0 0 0 5-5V41a5 5 0 0 0-5-5z"/><path fill="#A86A3F" d="M79 62h-8a7 7 0 1 1 0-14h8a2 2 0 0 1 2 2v10a2 2 0 0 1-2 2z"/><path fill="#ECC35D" d="M71 51a4 4 0 1 1 0 8 4 4 0 0 1 0-8z"/><path fill="#CA8B5F" d="M74 36H25a4 4 0 0 1-4-4v2a4 4 0 0 0 4 4h49a5 5 0 0 1 5 5v-2a5 5 0 0 0-5-5z"/><path fill="#B27245" d="M74 71H26a5 5 0 0 1-5-5v2a5 5 0 0 0 5 5h48a5 5 0 0 0 5-5v-2a5 5 0 0 1-5 5z"/></svg>