<svg xmlns="http://www.w3.org/2000/svg" width="100" height="100" viewBox="0 0 100 100"><path fill="#57C7ED" d="M50 0C22.386 0 0 22.386 0 50s22.386 50 50 50 50-22.386 50-50S77.614 0 50 0z"/><path fill="#79D2F1" d="M54 9.999H40a2 2 0 0 0 0 4h2v.003a1.498 1.498 0 0 1 0 2.994v.003h-8a2 2 0 0 0 0 4h15a2 2 0 0 0 0-4 1.5 1.5 0 0 1 0-3h5a2 2 0 0 0 0-4z"/><path fill="#53BDE1" d="M70.155 30.826c-1.925-1.927-6.752-.22-9.062 2.093l-8.789 8.795c-.861-.798-22.207-8.409-22.975-7.644l-2.786 2.781a1.965 1.965 0 0 0 0 2.783l15.607 12.24L36 58.028c-.468.468-1.055 1.188-1.675 2.046l-.245-.245c-.393-.392-5.997-1.1-6.39-.708l-1.42 1.417a1 1 0 0 0 0 1.417l.7.697 3.754 3.747c-.744 1.855-1.019 3.466-.3 4.185.719.721 2.331.444 4.188-.303l3.699 3.691.736.734a1.004 1.004 0 0 0 1.42 0l1.42-1.416c.392-.393-.318-5.986-.71-6.377l-.242-.241c.853-.618 1.568-1.203 2.034-1.669l6.15-6.155 12.246 15.558c.77.768 2.017.768 2.786 0l2.786-2.782c.769-.768-6.869-22.116-7.657-22.944l8.781-8.787c2.313-2.31 4.019-7.141 2.094-9.067zm0 0c-1.925-1.927-6.752-.22-9.062 2.093l-8.789 8.795c-.861-.798-22.207-8.409-22.975-7.644l-2.786 2.781a1.965 1.965 0 0 0 0 2.783l15.607 12.24L36 58.028c-.468.468-1.055 1.188-1.675 2.046l-.245-.245c-.393-.392-5.997-1.1-6.39-.708l-1.42 1.417a1 1 0 0 0 0 1.417l.7.697 3.754 3.747c-.744 1.855-1.019 3.466-.3 4.185.719.721 2.331.444 4.188-.303l3.699 3.691.736.734a1.004 1.004 0 0 0 1.42 0l1.42-1.416c.392-.393-.318-5.986-.71-6.377l-.242-.241c.853-.618 1.568-1.203 2.034-1.669l6.15-6.155 12.246 15.558c.77.768 2.017.768 2.786 0l2.786-2.782c.769-.768-6.869-22.116-7.657-22.944l8.781-8.787c2.313-2.31 4.019-7.141 2.094-9.067z"/><path fill="#676767" d="M39 31.999A2 2 0 1 0 39.001 36 2 2 0 0 0 39 32zm6 2A2 2 0 1 0 45.001 38 2 2 0 0 0 45 34zm22 21a2 2 0 1 0-4.001.001A2 2 0 0 0 67 55zm0 4A2 2 0 1 0 67.001 63 2 2 0 0 0 67 59zm-28-27A2 2 0 1 0 39.001 36 2 2 0 0 0 39 32zm6 2A2 2 0 1 0 45.001 38 2 2 0 0 0 45 34zm22 21a2 2 0 1 0-4.001.001A2 2 0 0 0 67 55zm0 4A2 2 0 1 0 67.001 63 2 2 0 0 0 67 59z"/><path fill="#8AD8F2" d="M100 50a49.846 49.846 0 0 0-3.747-19.001H87a2 2 0 0 0 0 4h6a1.5 1.5 0 1 1 0 3h-1.5a2.5 2.5 0 1 0 0 5H96a1.5 1.5 0 0 1 0 3H85a3 3 0 0 0 0 6h14.949c.027-.664.051-1.328.051-1.999z"/><path d="M43.707 37.706l-1.414-1.414L5.6 72.984c.321.618.654 1.228.999 1.83l37.108-37.108zM3.937 69.478l33.771-33.771-1.414-1.415L3.136 67.449c.254.683.517 1.361.801 2.029zm62.77-5.771l-1.414-1.414-34.055 34.054a49.37 49.37 0 0 0 2.048.781l33.421-33.421zM25.819 93.766c.611.338 1.23.659 1.856.973l35.031-35.032-1.414-1.413-35.473 35.472z" fill="#70CFF0"/><path d="M43.246 38.167c-.69-.244-1.391-.49-2.095-.733l-7.654 7.654 1.585 1.243 8.164-8.164zm-14.232 3.404l1.585 1.244 6.686-6.686c-.74-.242-1.459-.473-2.143-.688l-6.128 6.13zm26.468 25.36l7.225-7.225-1.414-1.413-7.056 7.056zm9.85-1.849c-.219-.687-.453-1.401-.696-2.132l-6.875 6.874 1.246 1.583 6.325-6.325z" fill="#66C3E3"/><path fill="#EAEAEA" d="M36.081 57.83l7.099 7.085c.392.391 1.102 5.984.71 6.377l-1.42 1.416a1.004 1.004 0 0 1-1.42 0l-.736-.734-5.631-5.619-5.711-5.701-.7-.697a1 1 0 0 1 0-1.417l1.42-1.417c.392-.393 5.996.315 6.389.707zm18.233-18.109l6.965 6.954c.769.769 8.431 22.182 7.661 22.95l-2.786 2.782a1.972 1.972 0 0 1-2.786 0L48.02 52.908 28.544 37.635a1.965 1.965 0 0 1 0-2.783l2.786-2.781c.77-.768 22.215 6.881 22.984 7.65z"/><path fill="#fff" d="M72.155 28.826c1.925 1.926.219 6.757-2.091 9.067L44.972 63.005c-2.31 2.312-10.622 7.507-12.546 5.58-1.925-1.926 3.266-10.244 5.575-12.556l25.093-25.11c2.309-2.313 7.136-4.02 9.061-2.093z"/><path fill="#DEDEDE" d="M40.298 46.853l3.963 3.107 10.146-10.146-.093-.093c-.223-.222-2.179-1.021-4.86-2.024l-9.156 9.156z"/><path fill="#F2F2F2" d="M40.001 58.029l25.093-25.11c1.893-1.895 5.472-3.379 7.763-2.796-.128-.505-.354-.949-.701-1.297-1.925-1.927-6.752-.22-9.062 2.093l-25.093 25.11c-2.31 2.312-7.5 10.63-5.575 12.556.348.349.909.458 1.601.399.261-3.138 4.081-9.06 5.974-10.955z"/></svg>