<svg xmlns="http://www.w3.org/2000/svg" xmlns:xlink="http://www.w3.org/1999/xlink" xml:space="preserve" width="26.458mm" height="26.458mm" version="1.1" style="shape-rendering:geometricPrecision; text-rendering:geometricPrecision; image-rendering:optimizeQuality; fill-rule:evenodd; clip-rule:evenodd" viewBox="0 0 2646 2646">
 <defs>
  <style type="text/css">
   <![CDATA[
    .fil5 {fill:#D2D3D5}
    .fil1 {fill:#2B414D}
    .fil4 {fill:#2D4552}
    .fil3 {fill:#324D5B}
    .fil7 {fill:#668292}
    .fil2 {fill:#CCD0D2}
    .fil6 {fill:#E2574C}
    .fil0 {fill:#EFC75E}
    .fil8 {fill:#99A6AD;fill-rule:nonzero}
   ]]>
  </style>
 </defs>
 <g id="Layer_x0020_1">
  <metadata id="CorelCorpID_0Corel-Layer"/>
  <g id="_736492832">
   <path class="fil0" d="M1323 0c731,0 1323,592 1323,1323 0,731 -592,1323 -1323,1323 -731,0 -1323,-592 -1323,-1323 0,-731 592,-1323 1323,-1323z"/>
   <path class="fil1" d="M2011 714l-1244 0c-102,0 -185,83 -185,185l0 1519c211,143 466,227 741,227 335,0 640,-125 873,-329l0 -1417c0,-102 -83,-185 -185,-185l0 0z"/>
   <path class="fil2" d="M1958 714l-1244 0c-102,0 -185,83 -185,185l0 1482c221,166 496,265 794,265 310,0 595,-107 820,-285l0 -1461c0,-102 -83,-185 -185,-185z"/>
   <path class="fil3" d="M1879 661l-1217 0c-102,0 -185,83 -185,185l0 1493c229,191 525,307 847,307 275,0 529,-84 741,-227l0 -1572c0,-102 -83,-185 -185,-185l0 0z"/>
   <path class="fil4" d="M476 847l0 1493c26,21 52,42 79,61l0 -1554c0,-102 83,-185 185,-185l-79 0c-102,0 -185,83 -185,185l0 0z"/>
   <path class="fil5" d="M1646 1741c1,-12 1,-24 0,-35l-34 -10 -10 -38 25 -25c-5,-11 -11,-21 -17,-31l-35 9 -28 -28 9 -34c-10,-7 -20,-13 -30,-18l-25 25 -38 -11 -9 -35 -3 0c-11,-1 -22,-1 -33,0l-9 34 -38 10 -25 -25c-11,5 -21,11 -31,17l9 35 -28 28 -34 -10c-7,10 -13,20 -18,30l25 25 -10 38 -35 9c-1,12 -1,24 0,35l34 10 10 38 -25 25c5,11 11,21 17,31l35 -9 28 28 -9 34c10,7 20,13 30,18l25 -25 38 11 9 35 3 0c11,1 22,1 33,0l9 -34 38 -10 25 25c11,-5 21,-11 31,-17l-9 -35 28 -28 34 10c7,-10 13,-20 18,-30l-25 -25 10 -38 35 -9zm-184 81c-56,15 -113,-18 -128,-74 -15,-56 18,-113 74,-128 56,-15 113,18 128,74 15,56 -18,113 -74,128z"/>
   <path class="fil6" d="M1510 2187l42 -14c0,-15 -1,-29 -3,-44l-44 -9 -16 -47 30 -33c-7,-13 -15,-25 -24,-37l-42 14 -37 -33 9 -44c-13,-8 -26,-14 -39,-20l-30 33 -48 -10 -14 -42c-15,0 -29,1 -44,3l-9 44 -47 16 -33 -30c-13,7 -25,15 -37,24l14 42 -33 37 -44 -9c-8,13 -14,26 -20,39l33 30 -10 48 -42 14c0,15 1,29 3,44l44 9 16 47 -30 33c7,13 15,25 24,37l42 -14 37 33 -9 44c13,8 26,14 39,20l30 -33 48 10 14 42c15,0 29,-1 44,-3l9 -44 47 -16 33 30c13,-7 25,-15 37,-24l-14 -42 33 -37 44 9c8,-13 14,-26 20,-39l-33 -30 10 -48 0 0zm-222 112c-73,0 -132,-59 -132,-132 0,-73 59,-132 132,-132 73,0 132,59 132,132 0,73 -59,132 -132,132z"/>
   <path class="fil7" d="M1948 2048c3,-12 4,-23 5,-35l-33 -14 -5 -39 28 -22c-3,-11 -8,-22 -13,-33l-35 4 -24 -32 14 -33 -2 -2c-8,-7 -17,-14 -26,-20l-28 21 -36 -15 -4 -35c-11,-3 -23,-4 -35,-5l-14 33 -39 5 -22 -29c-11,3 -22,8 -33,13l4 35 -31 24 -33 -14c-8,9 -15,18 -22,28l22 29 -15 36 -35 4c-3,12 -4,23 -5,35l33 14 5 39 -28 22c3,11 8,22 13,33l35 -4 24 32 -14 33 2 2c8,7 17,14 26,20l28 -22 36 15 4 35c11,3 23,4 35,5l14 -33 39 -5 22 29c11,-3 22,-8 33,-13l-4 -35 31 -24 33 14c8,-9 15,-18 22,-28l-22 -29 15 -36 35 -4 0 0zm-104 -19c-15,56 -73,90 -130,75 -56,-15 -90,-73 -75,-130 15,-56 73,-90 130,-75 56,15 90,73 75,130z"/>
   <polygon class="fil8" points="1095,1354 1020,1354 1020,1202 881,1202 881,1354 806,1354 806,1001 881,1001 881,1139 1020,1139 1020,1001 1095,1001 "/>
   <path id="1" class="fil8" d="M1462 1001l-109 250c-14,31 -26,54 -38,68 -12,14 -26,24 -43,30 -16,7 -36,10 -60,10 -20,0 -39,-2 -56,-7l0 -64c14,6 32,9 53,9 13,0 24,-3 32,-9 8,-6 15,-17 20,-32l-122 -253 79 0 87 197 2 0 4 -12 73 -185 77 0z"/>
   <polygon id="2" class="fil8" points="1785,1354 1711,1354 1711,1063 1581,1063 1581,1354 1506,1354 1506,1001 1785,1001 "/>
  </g>
 </g>
</svg>