<svg width="2052" height="508" viewBox="0 0 2052 508" fill="none" xmlns="http://www.w3.org/2000/svg">
<g clip-path="url(#clip0)">
<path fill-rule="evenodd" clip-rule="evenodd" d="M947.69 432.464C933.562 432.869 919.501 430.339 906.359 425.028C893.216 419.717 881.266 411.737 871.231 401.569C861.197 391.401 853.287 379.258 847.981 365.876C842.675 352.493 840.084 338.15 840.363 323.714C840.084 309.279 842.675 294.935 847.981 281.553C853.287 268.171 861.197 256.028 871.231 245.86C881.266 235.692 893.216 227.712 906.359 222.401C919.501 217.091 933.562 214.561 947.69 214.965C965.827 214.792 983.68 219.541 999.431 228.726C1014.77 237.475 1027.49 250.314 1036.23 265.872L1012.36 279.969C1006.44 268.24 997.301 258.522 986.074 251.998C974.424 245.139 961.191 241.585 947.744 241.704C937.035 241.298 926.359 243.161 916.388 247.175C906.417 251.19 897.368 257.27 889.81 265.032C882.419 272.735 876.626 281.884 872.778 291.929C868.929 301.974 867.105 312.708 867.414 323.49C867.083 334.331 868.939 345.124 872.867 355.2C876.794 365.276 882.71 374.418 890.245 382.059C897.779 389.698 906.773 395.672 916.664 399.609C926.557 403.546 937.137 405.361 947.744 404.941C961.191 405.061 974.424 401.507 986.074 394.648C997.223 388.264 1006.34 378.752 1012.36 367.237L1036.07 380.998C1027.44 396.632 1014.76 409.54 999.431 418.312C983.651 427.587 965.734 432.395 947.526 432.241L947.69 432.464ZM1081.69 365.67C1083.66 378.006 1090.11 389.129 1099.75 396.83C1109.88 404.475 1122.22 408.416 1134.8 408.018C1154.13 408.018 1168.2 400.69 1177.02 386.145L1198.92 398.732C1184.69 421.109 1163.18 432.296 1134.41 432.296C1123.97 432.717 1113.54 430.949 1103.79 427.101C1094.03 423.252 1085.15 417.406 1077.68 409.92C1070.45 402.527 1064.78 393.701 1061.01 383.984C1057.25 374.267 1055.47 363.866 1055.78 353.419C1055.48 343.044 1057.22 332.711 1060.89 323.034C1064.57 313.358 1070.12 304.534 1077.19 297.086C1084.4 289.635 1093.06 283.798 1102.6 279.946C1112.14 276.094 1122.36 274.311 1132.61 274.71C1142.51 274.387 1152.36 276.3 1161.46 280.313C1170.56 284.327 1178.67 290.341 1185.24 297.925C1198.77 313.233 1206.08 333.242 1205.66 353.867C1205.64 357.782 1205.33 361.691 1204.73 365.559L1081.69 365.67ZM1132.44 299.436C1120.19 298.842 1108.16 302.983 1098.75 311.037C1089.35 319.091 1083.25 330.468 1081.69 342.903H1179.65C1178.38 330.371 1172.51 318.797 1163.22 310.512C1154.6 303.138 1143.69 299.168 1132.44 299.324V299.436ZM1315.72 274.878C1325.55 274.728 1335.31 276.693 1344.36 280.644C1353.41 284.595 1361.54 290.445 1368.23 297.814C1382.21 312.942 1390 332.955 1390 353.755C1390 374.555 1382.21 394.568 1368.23 409.696C1361.53 417.054 1353.4 422.896 1344.35 426.847C1335.31 430.798 1325.55 432.768 1315.72 432.632C1304.74 433.125 1293.83 430.641 1284.1 425.434C1274.37 420.226 1266.16 412.481 1260.31 402.984V488.461H1234.79V278.738H1260.31V304.526C1266.16 295.029 1274.37 287.284 1284.1 282.076C1293.83 276.869 1304.74 274.385 1315.72 274.878ZM1312.49 407.291C1319.36 407.453 1326.19 406.166 1332.55 403.509C1338.91 400.853 1344.67 396.884 1349.45 391.851C1359.05 381.545 1364.39 367.866 1364.39 353.643C1364.39 339.42 1359.05 325.741 1349.45 315.436C1339.52 305.57 1326.21 300.05 1312.35 300.05C1298.5 300.05 1285.19 305.57 1275.25 315.436C1265.65 325.741 1260.31 339.42 1260.31 353.643C1260.31 367.866 1265.65 381.545 1275.25 391.851C1280.09 396.902 1285.89 400.881 1292.29 403.538C1298.7 406.194 1305.58 407.472 1312.49 407.291ZM1518.11 351.349C1525.05 353.859 1531 358.604 1535.06 364.87C1539.14 371.136 1541.1 378.583 1540.67 386.089C1540.86 391.75 1539.87 397.387 1537.77 402.632C1535.68 407.876 1532.52 412.609 1528.52 416.521C1518.9 425.013 1506.42 429.313 1493.74 428.492H1420.41V278.738H1487.88C1500.2 277.907 1512.36 281.909 1521.88 289.926C1525.88 293.66 1529.01 298.237 1531.09 303.338C1533.18 308.438 1534.14 313.941 1533.93 319.463C1534.31 325.759 1533.04 332.043 1530.25 337.674C1527.48 343.306 1523.29 348.084 1518.11 351.517V351.349ZM1486.73 301.898H1445.33V341.057H1486.73C1501.56 341.057 1508.98 334.362 1509.02 320.974C1509.02 308.144 1501.59 301.748 1486.73 301.785V301.898ZM1492.2 404.661C1498.42 405.009 1504.54 403.019 1509.4 399.067C1511.43 397.126 1513.02 394.75 1514.05 392.112C1515.08 389.472 1515.53 386.633 1515.37 383.796C1515.52 381.068 1515.05 378.342 1514.02 375.822C1512.99 373.304 1511.41 371.057 1509.4 369.251C1504.48 365.442 1498.37 363.576 1492.2 363.993H1445.28V404.437L1492.2 404.661ZM1674.93 278.738H1695.41V428.492H1670.22V323.379L1588.75 428.492H1568.21V278.738H1593.46V383.739L1674.93 278.738ZM1803.07 432.464C1792.87 432.709 1782.73 430.838 1773.26 426.964C1763.79 423.09 1755.19 417.293 1747.98 409.924C1740.77 402.555 1735.09 393.768 1731.3 384.094C1727.51 374.42 1725.67 364.061 1725.92 353.643C1725.68 343.23 1727.52 332.877 1731.31 323.209C1735.11 313.542 1740.79 304.762 1748 297.399C1755.21 290.037 1763.81 284.245 1773.27 280.374C1782.74 276.502 1792.87 274.634 1803.07 274.878C1816.78 274.659 1830.28 278.339 1842.06 285.507C1853.25 292.219 1862.24 302.166 1867.91 314.092L1846.49 326.679C1842.73 318.706 1836.75 312.048 1829.3 307.547C1819.37 301.684 1807.84 299.296 1796.46 300.751C1785.08 302.205 1774.48 307.421 1766.27 315.603C1756.74 325.819 1751.42 339.391 1751.42 353.503C1751.42 367.616 1756.74 381.188 1766.27 391.403C1771.04 396.398 1776.78 400.333 1783.11 402.961C1789.44 405.589 1796.23 406.853 1803.07 406.675C1812.33 406.807 1821.45 404.372 1829.47 399.627C1837.1 395.174 1843.31 388.571 1847.37 380.607L1869.27 393.529C1862.98 405.316 1853.65 415.108 1842.28 421.835C1830.46 428.931 1816.99 432.606 1803.29 432.464H1803.07ZM1956.4 332.665C1969.66 332.307 1982.56 337.082 1992.53 346.035C1997.12 350.497 2000.77 355.865 2003.27 361.812C2005.76 367.76 2007.05 374.163 2007.05 380.635C2007.05 387.106 2005.76 393.509 2003.27 399.457C2000.77 405.404 1997.12 410.773 1992.53 415.234C1982.52 424.192 1969.54 428.93 1956.23 428.492H1894.35V278.738H1919.87V332.665H1956.4ZM2026.49 278.738H2052V428.492H2026.49V278.738ZM1956.4 404.27C1963.07 404.484 1969.6 402.196 1974.74 397.836C1977.19 395.743 1979.13 393.098 1980.43 390.111C1981.72 387.122 1982.32 383.87 1982.18 380.607C1982.3 377.33 1981.69 374.068 1980.4 371.065C1979.11 368.062 1977.18 365.396 1974.74 363.265C1969.64 358.813 1963.1 356.46 1956.4 356.664H1920.04V404.27H1956.4Z" fill="black"/>
<path fill-rule="evenodd" clip-rule="evenodd" d="M42.4171 146.538H752.4V465.498C752.4 476.77 747.932 487.58 739.977 495.551C732.022 503.522 721.233 508 709.983 508H42.4171C31.1674 508 20.3784 503.522 12.4237 495.551C4.46893 487.58 0 476.77 0 465.498V189.04C0 177.769 4.46893 166.958 12.4237 158.987C20.3784 151.017 31.1674 146.538 42.4171 146.538Z" fill="#ED332D"/>
<path fill-rule="evenodd" clip-rule="evenodd" d="M844.005 109.01C858.623 89.536 865.654 55.96 854.271 0C710.652 22.384 741.451 100.224 755.177 124.567C776.33 91.6732 801.276 61.3951 829.498 34.3595C810.366 62.0812 793.817 91.5097 780.062 122.273C799.424 99.8884 822.133 98.7132 844.005 109.01ZM889.2 154.673C826.261 225.855 792.505 186.458 779.951 165.082C799.498 158.561 820.079 155.716 840.658 156.688C819.884 150.255 798.151 147.509 776.436 148.573C784.08 130.163 815.549 75.8258 889.2 154.673Z" fill="#A6CD33"/>
<path fill-rule="evenodd" clip-rule="evenodd" d="M429.898 224.692H448.684V243.427H429.898V224.692ZM160.852 342.074L207.513 224.692H238.546L166.837 393.194C156.309 417.897 142.509 428.839 116.963 429.834C103.713 430.035 90.5462 427.709 78.1714 422.981V399.384C102.388 406.458 105.547 407.286 114.192 407.12C125.996 407.12 135.97 400.821 147.442 374.404L78.3377 224.692H108.318L160.852 342.074ZM364.286 429.834H338.406V375.288C327.03 378.277 315.313 379.782 303.549 379.764C267.252 379.764 245.695 361.085 245.363 324.168V279.514H271.131V325.219C271.131 347.656 282.215 357.438 303.549 357.438C315.313 357.455 327.03 355.95 338.406 352.961V279.514H364.286V429.834ZM467.36 429.834C419.037 429.834 395.651 398.223 395.651 354.177C395.651 315.491 420.643 279.626 464.034 279.626C518.121 279.626 528.373 319.029 528.373 361.859H419.48C419.453 368.169 420.707 374.419 423.166 380.234C425.626 386.048 429.24 391.306 433.792 395.689C438.342 400.073 443.737 403.493 449.649 405.743C455.561 407.991 461.868 409.025 468.191 408.779C476.145 409.114 484.069 407.596 491.332 404.344C498.594 401.091 504.997 396.195 510.03 390.043L526.656 401.815C513.356 420.494 493.59 429.834 467.36 429.834ZM464.034 299.908C438.82 299.908 423.248 319.637 420.367 341.577H504.544C504.544 319.085 489.304 299.908 464.034 299.908ZM674.229 300.405H623.689V429.834H597.921V300.405H548.046V279.514H673.951V300.294L674.229 300.405ZM475.562 224.858H494.347V243.593H475.562V224.858Z" fill="white"/>
</g>
<defs>
<clipPath id="clip0">
<rect width="2052" height="508" fill="white"/>
</clipPath>
</defs>
</svg>
